#N canvas 421 158 840 602 10;
#N canvas 0 50 450 250 (subpatch) 0;
#X array out 100 float 3;
#A 0 0 0 0 0 0 0 0 0 0 0 0 0 0 0 0 0 0 0 0 0 0 0 0 0 0 0 0 0 0 0 0
0 0 0 0 0 0 0 0 0 0 0 0 0 0 0 0 0 0 0 0 0 0 0 0 0 0 0 0 0 0 0 0 0 0
0 0 0 0 0 0 0 0 0 0 0 0 0 0 0 0 0 0 0 0 0 0 0 0 0 0 0 0 0 0 0 0 0 0
0;
#X coords 0 1 99 -1 200 140 1;
#X restore 438 15 graph;
#X obj 450 363 tabwrite~ out;
#X obj 449 320 bng 15 250 50 0 empty empty empty 17 7 0 10 -262144
-1 -1;
#X obj 449 339 metro 250;
#X obj 303 346 +~;
#X obj 302 394 dac~;
#X text 128 151 entered zone;
#X text 391 159 left zone;
#X text 88 269 zone subpatches;
#X text 8 7 sonic kayak zone mixer;
#X msg 223 68 port 8888;
#X obj 222 88 udpreceive 8888;
#X obj 222 108 unpackOSC;
#X obj 220 129 route /entered-zone /left-zone;
#X msg 129 206 1;
#X msg 172 206 1;
#X msg 207 208 1;
#X msg 322 210 0;
#X msg 368 209 0;
#X msg 403 208 0;
#X obj 219 151 unpack s;
#X obj 322 152 unpack s;
#X obj 27 320 loadbang;
#X msg 27 344 1;
#X obj 85 337 delay 5000;
#X msg 85 359 0;
#X obj 27 376 startup;
#X msg 30 108 \; pd dsp 1;
#X obj 31 82 loadbang;
#X obj 196 269 zone-water;
#X obj 323 346 +~;
#X obj 271 268 zone-quipu;
#X obj 339 267 zone-noise;
#X obj 408 268 zone-claudius;
#X msg 240 208 1;
#X msg 441 206 0;
#X obj 323 181 select base wharf inner outer;
#X obj 116 182 select base wharf inner outer;
#X text 0 219 for manual testing;
#X text 1 205 use these buttons ->;
#X text 26 400 startup sound;
#X connect 2 0 3 0;
#X connect 3 0 1 0;
#X connect 4 0 5 0;
#X connect 10 0 11 0;
#X connect 11 0 12 0;
#X connect 12 0 13 0;
#X connect 13 0 20 0;
#X connect 13 1 21 0;
#X connect 14 0 29 0;
#X connect 15 0 31 0;
#X connect 16 0 32 0;
#X connect 17 0 29 0;
#X connect 18 0 31 0;
#X connect 19 0 32 0;
#X connect 20 0 37 0;
#X connect 21 0 36 0;
#X connect 22 0 23 0;
#X connect 22 0 24 0;
#X connect 23 0 26 0;
#X connect 24 0 25 0;
#X connect 25 0 26 0;
#X connect 26 0 5 0;
#X connect 26 0 5 1;
#X connect 28 0 27 0;
#X connect 29 0 4 0;
#X connect 29 1 30 0;
#X connect 30 0 5 1;
#X connect 30 0 1 0;
#X connect 31 0 4 0;
#X connect 31 1 30 0;
#X connect 32 0 4 0;
#X connect 32 1 30 0;
#X connect 33 0 4 0;
#X connect 33 1 30 0;
#X connect 34 0 33 0;
#X connect 35 0 33 0;
#X connect 36 0 17 0;
#X connect 36 1 18 0;
#X connect 36 2 19 0;
#X connect 36 3 35 0;
#X connect 37 0 14 0;
#X connect 37 1 15 0;
#X connect 37 2 16 0;
#X connect 37 3 34 0;
