#N canvas 402 163 844 544 10;
#X obj 126 665 outlet~;
#X obj 11 23 inlet;
#X obj 60 641 *~;
#X obj 76 54 line~;
#X obj 77 29 pack 1 5000;
#X obj 9 135 switch~;
#X obj 10 46 moses 1;
#X obj 10 91 delay 5000;
#X floatatom 10 118 5 0 0 0 - - -, f 5;
#X obj 8 69 sel 0;
#X text 255 25 fade in/out bit;
#X text 6 0 switch off the audio dsp after it's finished fading out
;
#X text 10 196 comment;
#X floatatom 640 227 5 0 0 0 - - -, f 5;
#X obj 646 172 loadbang;
#X obj 61 666 outlet~;
#X obj 111 639 *~;
#X obj 278 89 unpackOSC;
#X msg 278 48 port 8889;
#X obj 278 69 udpreceive 8889;
#X obj 176 187 unpack f;
#X obj 175 209 + 1;
#X obj 175 250 line;
#X obj 175 229 pack 0 1000;
#X msg 642 206 6;
#X obj 176 286 *;
#X floatatom 341 161 5 0 0 0 - - -, f 5;
#X obj 249 507 *~ 0.5;
#X obj 309 481 *~ 0.75;
#X obj 308 455 delread~ watertemp 1000;
#X obj 330 555 delwrite~ watertemp 1000;
#X obj 175 318 osc~;
#X obj 176 344 *~;
#X obj 304 186 unpack f;
#X obj 303 249 line;
#X obj 303 228 pack 0 1000;
#X obj 276 117 route /temp-0 /tempdiff-0 /temp-1 /tempdiff-1;
#X msg 342 140 50;
#X obj 302 294 phasor~;
#X obj 302 317 lop~ 1000;
#X obj 402 181 unpack f;
#X obj 401 203 + 1;
#X obj 401 244 line;
#X obj 401 223 pack 0 1000;
#X obj 402 280 *;
#X obj 401 312 osc~;
#X obj 402 338 *~;
#X obj 530 180 unpack f;
#X obj 529 243 line;
#X obj 529 222 pack 0 1000;
#X obj 528 288 phasor~;
#X obj 528 311 lop~ 1000;
#X obj 303 271 * 10;
#X obj 528 265 * 10;
#X connect 1 0 4 0;
#X connect 1 0 6 0;
#X connect 2 0 15 0;
#X connect 3 0 2 1;
#X connect 3 0 16 1;
#X connect 4 0 3 0;
#X connect 6 0 9 0;
#X connect 6 1 5 0;
#X connect 7 0 8 0;
#X connect 8 0 5 0;
#X connect 9 0 7 0;
#X connect 14 0 24 0;
#X connect 14 0 37 0;
#X connect 16 0 0 0;
#X connect 17 0 36 0;
#X connect 18 0 19 0;
#X connect 19 0 17 0;
#X connect 20 0 21 0;
#X connect 21 0 23 0;
#X connect 22 0 25 0;
#X connect 23 0 22 0;
#X connect 24 0 13 0;
#X connect 25 0 31 0;
#X connect 26 0 25 1;
#X connect 26 0 44 1;
#X connect 27 0 2 0;
#X connect 27 0 16 0;
#X connect 29 0 28 0;
#X connect 31 0 32 0;
#X connect 32 0 27 0;
#X connect 33 0 35 0;
#X connect 34 0 52 0;
#X connect 35 0 34 0;
#X connect 36 0 20 0;
#X connect 36 1 33 0;
#X connect 36 2 40 0;
#X connect 36 3 47 0;
#X connect 37 0 26 0;
#X connect 38 0 39 0;
#X connect 39 0 32 1;
#X connect 40 0 41 0;
#X connect 41 0 43 0;
#X connect 42 0 44 0;
#X connect 43 0 42 0;
#X connect 44 0 45 0;
#X connect 45 0 46 0;
#X connect 46 0 27 0;
#X connect 47 0 49 0;
#X connect 48 0 53 0;
#X connect 49 0 48 0;
#X connect 50 0 51 0;
#X connect 51 0 46 1;
#X connect 52 0 38 0;
#X connect 53 0 50 0;
