#N canvas 0 54 1366 714 10;
#X obj 134 140 loadbang;
#X obj 134 190 soundfiler;
#N canvas 0 50 450 300 (subpatch) 0;
#X array sample-table 4e+06 float 0;
#X coords 0 1.02 4e+06 -1.02 200 130 1;
#X restore 225 210 graph;
#X obj 110 437 dac~;
#X msg 134 164 read -resize ../../samples/UR113.wav sample-table;
#X obj 118 362 +~ 1;
#X obj 118 385 tabread4~ sample-table;
#X obj 109 295 /;
#X obj 101 244 t b;
#X obj 101 269 f 1;
#X obj 124 218 / 44100;
#X obj 109 317 phasor~;
#X obj 119 339 *~;
#X obj 119 406 *~ 0.01;
#X connect 0 0 4 0;
#X connect 1 0 10 0;
#X connect 1 0 12 1;
#X connect 4 0 1 0;
#X connect 5 0 6 0;
#X connect 6 0 13 0;
#X connect 7 0 11 0;
#X connect 8 0 9 0;
#X connect 9 0 7 0;
#X connect 10 0 7 1;
#X connect 10 0 8 0;
#X connect 11 0 12 0;
#X connect 12 0 5 0;
#X connect 13 0 3 0;
#X connect 13 0 3 1;
