#N canvas 390 272 629 403 10;
#X obj 98 35 metro 400;
#X obj 101 14 bng 15 250 50 0 empty empty empty 17 7 0 10 -262144 -1
-1;
#X obj 91 151 bng 15 250 50 0 empty empty empty 17 7 0 10 -262144 -1
-1;
#X obj 128 149 bng 15 250 50 0 empty empty empty 17 7 0 10 -262144
-1 -1;
#X obj 160 148 bng 15 250 50 0 empty empty empty 17 7 0 10 -262144
-1 -1;
#X obj 189 144 bng 15 250 50 0 empty empty empty 17 7 0 10 -262144
-1 -1;
#X obj 98 59 f 0;
#X obj 131 60 + 1;
#X obj 100 83 mod 4;
#X obj 92 176 vsl 15 128 0 127 0 0 empty empty empty 0 -9 0 10 -262144
-1 -1 6000 1;
#X floatatom 137 323 5 0 0 0 - - -, f 5;
#X obj 158 173 vsl 15 128 0 127 0 0 empty empty empty 0 -9 0 10 -262144
-1 -1 4700 1;
#X obj 185 172 vsl 15 128 0 127 0 0 empty empty empty 0 -9 0 10 -262144
-1 -1 8100 1;
#X obj 127 177 vsl 15 128 0 127 0 0 empty empty empty 0 -9 0 10 -262144
-1 -1 7100 1;
#X floatatom 26 131 5 0 0 0 - - -, f 5;
#X obj 132 346 mtof;
#X obj 291 205 *~;
#X obj 470 74 / 127;
#X floatatom 473 48 5 0 0 0 - - -, f 5;
#X obj 290 231 dac~;
#X obj 346 35 line~;
#X obj 291 87 phasor~;
#X obj 290 171 cos~;
#X obj 291 122 +~;
#X obj 346 86 osc~;
#X obj 345 13 pack 0 200;
#X obj 345 61 *~ 2;
#X obj 99 115 select 0 1 2 3;
#X connect 0 0 6 0;
#X connect 1 0 0 0;
#X connect 2 0 9 0;
#X connect 3 0 13 0;
#X connect 4 0 11 0;
#X connect 5 0 12 0;
#X connect 6 0 7 0;
#X connect 6 0 8 0;
#X connect 7 0 6 1;
#X connect 8 0 27 0;
#X connect 9 0 10 0;
#X connect 10 0 15 0;
#X connect 11 0 10 0;
#X connect 12 0 10 0;
#X connect 13 0 10 0;
#X connect 14 0 9 0;
#X connect 15 0 21 0;
#X connect 15 0 25 0;
#X connect 16 0 19 0;
#X connect 16 0 19 1;
#X connect 17 0 16 1;
#X connect 18 0 17 0;
#X connect 20 0 26 0;
#X connect 21 0 23 0;
#X connect 22 0 16 0;
#X connect 23 0 22 0;
#X connect 24 0 23 1;
#X connect 25 0 20 0;
#X connect 26 0 24 0;
#X connect 27 0 2 0;
#X connect 27 1 3 0;
#X connect 27 2 4 0;
#X connect 27 3 5 0;
