#N canvas 154 87 1212 686 10;
#X obj 449 622 tabwrite~ out;
#X obj 447 579 bng 15 250 50 0 empty empty empty 17 7 0 10 -262144
-1 -1;
#X obj 448 598 metro 250;
#X obj 302 605 +~;
#X obj 305 635 dac~;
#X text 244 185 zone subpatches;
#X text 8 7 sonic kayak zone mixer;
#X msg 564 26 port 8888;
#X obj 563 46 udpreceive 8888;
#X obj 563 66 unpackOSC;
#X obj 561 87 route /entered-zone /left-zone;
#X msg 86 212 1;
#X msg 55 212 1;
#X msg 116 211 1;
#X msg 17 234 0;
#X msg 16 259 0;
#X msg 18 214 0;
#X obj 560 109 unpack s;
#X obj 663 110 unpack s;
#X obj 41 386 loadbang;
#X msg 41 410 1;
#X msg 99 425 0;
#X obj 41 442 startup;
#X msg 42 66 \; pd dsp 1;
#X obj 41 35 loadbang;
#X obj 327 604 +~;
#X msg 264 261 1;
#X msg 395 259 0;
#X text 17 361 startup sound;
#X obj 50 238 zone-gps-sense;
#X obj 50 285 zone-hydrophone;
#X obj 99 403 delay 1000;
#X obj 50 262 zone-tempwater-sine;
#X msg 296 260 1;
#X msg 427 259 0;
#X msg 329 260 1;
#X msg 460 259 0;
#X obj 261 206 select strip-1-a strip-1-b strip-1-c;
#X obj 260 231 select strip-1-a strip-1-b strip-1-c;
#N canvas 0 50 450 250 (subpatch) 0;
#X array out 100 float 3;
#A 0 0 0 0 0 0 0 0 0 0 0 0 0 0 0 0 0 0 0 0 0 0 0 0 0 0 0 0 0 0 0 0
0 0 0 0 0 0 0 0 0 0 0 0 0 0 0 0 0 0 0 0 0 0 0 0 0 0 0 0 0 0 0 0 0 0
0 0 0 0 0 0 0 0 0 0 0 0 0 0 0 0 0 0 0 0 0 0 0 0 0 0 0 0 0 0 0 0 0 0
0;
#X coords 0 1 99 -1 200 140 1;
#X restore 671 503 graph;
#X msg 312 353 _ ../sound/feynman.wav;
#X obj 280 311 loop;
#X obj 279 353 loop;
#X obj 312 332 loadbang;
#X obj 312 291 loadbang;
#X obj 279 394 loop;
#X obj 312 376 loadbang;
#X msg 314 311 _ ../sound/swansea-bay-take1.wav;
#X msg 311 395 _ ../sound/languageofchange.wav;
#X msg 551 261 1;
#X msg 694 261 0;
#X msg 583 260 1;
#X msg 726 261 0;
#X msg 614 260 1;
#X msg 762 261 0;
#X obj 567 311 loop;
#X obj 566 353 loop;
#X obj 599 332 loadbang;
#X obj 599 291 loadbang;
#X obj 566 394 loop;
#X obj 599 376 loadbang;
#X obj 547 231 select strip-2-a strip-2-b strip-2-c strip-2-d;
#X obj 548 206 select strip-2-a strip-2-b strip-2-c strip-2-d;
#X msg 643 260 1;
#X msg 797 259 0;
#X obj 565 438 loop;
#X obj 598 420 loadbang;
#X msg 598 311 _ ../sound/atone.wav;
#X msg 599 353 _ ../sound/beat-sparse.wav;
#X msg 597 439 _ ../sound/phase.wav;
#X msg 598 395 _ ../sound/rushes_squeaka.wav;
#X msg 888 255 1;
#X msg 1037 253 0;
#X msg 920 254 1;
#X msg 1002 252 0;
#X msg 953 254 1;
#X msg 1072 250 0;
#X obj 904 305 loop;
#X obj 903 347 loop;
#X obj 936 326 loadbang;
#X obj 936 285 loadbang;
#X obj 903 388 loop;
#X obj 936 370 loadbang;
#X obj 885 200 select strip-3-a strip-3-b strip-3-c;
#X obj 884 225 select strip-3-a strip-3-b strip-3-c;
#X msg 935 305 _ ../sound/voice4.wav;
#X msg 935 348 _ ../sound/dicap.wav;
#X msg 935 389 _ ../sound/voices.wav;
#X text 13 190 continuously playing things;
#X text 559 5 input from swamp zone system;
#X obj 191 43 select start;
#X obj 192 67 select start;
#X msg 223 91 0;
#X msg 192 90 1;
#X obj 183 136 loop;
#X obj 215 116 loadbang;
#X msg 217 136 _ ../sound/pulse_fat.wav;
#X connect 1 0 2 0;
#X connect 2 0 0 0;
#X connect 3 0 4 0;
#X connect 7 0 8 0;
#X connect 8 0 9 0;
#X connect 9 0 10 0;
#X connect 10 0 17 0;
#X connect 10 1 18 0;
#X connect 11 0 32 0;
#X connect 12 0 29 0;
#X connect 13 0 30 0;
#X connect 14 0 32 0;
#X connect 15 0 29 0;
#X connect 16 0 30 0;
#X connect 17 0 37 0;
#X connect 17 0 62 0;
#X connect 17 0 83 0;
#X connect 17 0 90 0;
#X connect 18 0 38 0;
#X connect 18 0 61 0;
#X connect 18 0 84 0;
#X connect 18 0 91 0;
#X connect 19 0 20 0;
#X connect 19 0 31 0;
#X connect 20 0 22 0;
#X connect 21 0 22 0;
#X connect 22 0 4 0;
#X connect 22 0 4 1;
#X connect 24 0 23 0;
#X connect 24 0 13 0;
#X connect 24 0 11 0;
#X connect 25 0 0 0;
#X connect 25 0 4 1;
#X connect 26 0 41 0;
#X connect 27 0 41 0;
#X connect 29 0 3 0;
#X connect 29 1 25 0;
#X connect 30 0 3 0;
#X connect 30 1 25 0;
#X connect 31 0 21 0;
#X connect 32 0 3 0;
#X connect 32 1 25 0;
#X connect 33 0 42 0;
#X connect 34 0 42 0;
#X connect 35 0 45 0;
#X connect 36 0 45 0;
#X connect 37 0 26 0;
#X connect 37 1 33 0;
#X connect 37 2 35 0;
#X connect 38 0 27 0;
#X connect 38 1 34 0;
#X connect 38 2 36 0;
#X connect 40 0 42 1;
#X connect 41 0 3 0;
#X connect 41 1 25 0;
#X connect 42 0 3 0;
#X connect 42 1 25 0;
#X connect 43 0 40 0;
#X connect 44 0 47 0;
#X connect 45 0 3 0;
#X connect 45 1 25 0;
#X connect 46 0 48 0;
#X connect 47 0 41 1;
#X connect 48 0 45 1;
#X connect 49 0 55 0;
#X connect 50 0 55 0;
#X connect 51 0 56 0;
#X connect 52 0 56 0;
#X connect 53 0 59 0;
#X connect 54 0 59 0;
#X connect 55 0 3 0;
#X connect 55 1 25 0;
#X connect 56 0 3 0;
#X connect 56 1 25 0;
#X connect 57 0 68 0;
#X connect 58 0 67 0;
#X connect 59 0 3 0;
#X connect 59 1 25 0;
#X connect 60 0 70 0;
#X connect 61 0 50 0;
#X connect 61 1 52 0;
#X connect 61 2 54 0;
#X connect 61 3 64 0;
#X connect 62 0 49 0;
#X connect 62 1 51 0;
#X connect 62 2 53 0;
#X connect 62 3 63 0;
#X connect 63 0 65 0;
#X connect 64 0 65 0;
#X connect 65 0 3 0;
#X connect 65 1 25 0;
#X connect 66 0 69 0;
#X connect 67 0 55 1;
#X connect 68 0 56 1;
#X connect 69 0 65 1;
#X connect 70 0 59 1;
#X connect 71 0 77 0;
#X connect 72 0 77 0;
#X connect 73 0 78 0;
#X connect 74 0 78 0;
#X connect 75 0 81 0;
#X connect 76 0 81 0;
#X connect 77 0 3 0;
#X connect 77 1 25 0;
#X connect 78 0 3 0;
#X connect 78 1 25 0;
#X connect 79 0 86 0;
#X connect 80 0 85 0;
#X connect 81 0 3 0;
#X connect 81 1 25 0;
#X connect 82 0 87 0;
#X connect 83 0 71 0;
#X connect 83 1 73 0;
#X connect 83 2 75 0;
#X connect 84 0 72 0;
#X connect 84 1 74 0;
#X connect 84 2 76 0;
#X connect 85 0 77 1;
#X connect 86 0 78 1;
#X connect 87 0 81 1;
#X connect 90 0 93 0;
#X connect 91 0 92 0;
#X connect 92 0 94 0;
#X connect 93 0 94 0;
#X connect 94 0 3 0;
#X connect 94 1 25 0;
#X connect 95 0 96 0;
#X connect 96 0 94 1;
