#N canvas 151 87 1212 686 10;
#X obj 449 622 tabwrite~ out;
#X obj 447 579 bng 15 250 50 0 empty empty empty 17 7 0 10 -262144
-1 -1;
#X obj 448 598 metro 250;
#X obj 183 620 +~;
#X obj 184 700 dac~;
#X text 244 185 zone subpatches;
#X text 8 7 sonic kayak zone mixer;
#X msg 564 26 port 8888;
#X obj 563 46 udpreceive 8888;
#X obj 563 66 unpackOSC;
#X obj 561 87 route /entered-zone /left-zone;
#X msg 86 212 1;
#X msg 55 212 1;
#X msg 116 211 1;
#X msg 14 242 0;
#X msg 16 212 0;
#X msg 17 268 0;
#X obj 560 109 unpack s;
#X obj 663 110 unpack s;
#X obj 41 386 loadbang;
#X msg 41 410 1;
#X msg 99 425 0;
#X msg 42 66 \; pd dsp 1;
#X obj 41 35 loadbang;
#X obj 208 619 +~;
#X msg 264 261 1;
#X text 17 361 startup sound;
#X obj 50 238 zone-gps-sense;
#X obj 50 285 zone-hydrophone;
#X obj 50 262 zone-tempwater-sine;
#X msg 296 260 1;
#X msg 326 259 1;
#N canvas 0 50 450 250 (subpatch) 0;
#X array out 100 float 3;
#A 0 0 0 0 0 0 0 0 0 0 0 0 0 0 0 0 0 0 0 0 0 0 0 0 0 0 0 0 0 0 0 0
0 0 0 0 0 0 0 0 0 0 0 0 0 0 0 0 0 0 0 0 0 0 0 0 0 0 0 0 0 0 0 0 0 0
0 0 0 0 0 0 0 0 0 0 0 0 0 0 0 0 0 0 0 0 0 0 0 0 0 0 0 0 0 0 0 0 0 0
0;
#X coords 0 1 99 -1 200 140 1;
#X restore 1179 29 graph;
#X obj 312 332 loadbang;
#X obj 312 291 loadbang;
#X obj 312 376 loadbang;
#X msg 599 258 1;
#X msg 787 259 0;
#X msg 631 257 1;
#X msg 819 259 0;
#X msg 662 257 1;
#X msg 855 259 0;
#X obj 615 308 loop;
#X obj 614 350 loop;
#X obj 647 329 loadbang;
#X obj 647 288 loadbang;
#X obj 614 391 loop;
#X obj 647 373 loadbang;
#X msg 691 257 1;
#X msg 890 257 0;
#X obj 613 435 loop;
#X obj 646 417 loadbang;
#X msg 1049 262 1;
#X msg 1081 261 1;
#X msg 1112 260 1;
#X obj 1097 333 loadbang;
#X obj 1097 292 loadbang;
#X obj 1097 377 loadbang;
#X text 13 190 continuously playing things;
#X text 559 5 input from swamp zone system;
#X obj 191 43 select start;
#X obj 192 67 select start;
#X msg 223 91 0;
#X msg 192 90 1;
#X obj 183 136 loop;
#X obj 215 116 loadbang;
#X msg 217 136 _ ../sound/pulse_fat.wav;
#X obj 10 498 loop;
#X obj 42 478 loadbang;
#X msg 44 498 _ ../sound/kayaks.wav;
#X obj 99 403 delay 30000;
#X obj 32 173 bng 15 250 50 0 empty empty empty 17 7 0 10 -262144 -1
-1;
#X obj 261 206 select strip-1-a strip-1-b strip-1-c strip-1-d;
#X obj 595 230 select strip-2-a strip-2-b strip-2-c strip-2-d strip-2-e
strip-2-f, f 66;
#X obj 596 207 select strip-2-a strip-2-b strip-2-c strip-2-d strip-2-e
strip-2-f, f 66;
#X msg 359 260 1;
#X obj 313 417 loadbang;
#X msg 314 311 _ ../sound/languageofchange_pulse_km.wav;
#X msg 312 353 _ ../sound/feynman.wav;
#X msg 312 436 _ ../sound/frost-take1.wav;
#X obj 616 477 loop;
#X obj 649 459 loadbang;
#X obj 615 521 loop;
#X obj 648 503 loadbang;
#X msg 646 308 _ ../sound/waterslow.wav;
#X msg 647 350 _ ../sound/waterslowstop.wav;
#X msg 646 392 _ ../sound/waterwalk2.wav;
#X msg 645 436 _ ../sound/waterwaltz.wav;
#X msg 648 478 _ ../sound/atone.wav;
#X msg 719 258 1;
#X msg 748 258 1;
#X msg 921 257 0;
#X msg 956 255 0;
#X obj 1096 422 loadbang;
#X msg 1144 260 1;
#X obj 1047 207 select strip-3-a strip-3-b strip-3-c strip-3-d;
#X obj 180 659 *~;
#X obj 206 658 *~;
#X floatatom 114 678 5 0 0 0 - - -, f 5;
#X obj 112 625 loadbang;
#X msg 647 522 _ ../sound/beat-sparse.wav;
#X msg 1096 312 _ ../sound/1plsticbottle_victoria.wav;
#X msg 1096 355 _ ../sound/litter_victoria.wav;
#X msg 1096 396 _ ../sound/seabass_maturity_victoria.wav;
#X msg 1094 441 _ ../sound/seabass_numbers_victoria.wav;
#X obj 275 354 1shot;
#X obj 273 396 1shot;
#X obj 274 437 1shot;
#X obj 1056 312 1shot;
#X obj 1055 353 1shot;
#X obj 1055 394 1shot;
#X obj 1054 439 1shot;
#X obj 274 313 1shot;
#X msg 311 395 _ ../sound/swansea-bay-take1.wav;
#X msg 113 656 4;
#X connect 1 0 2 0;
#X connect 2 0 0 0;
#X connect 3 0 96 0;
#X connect 7 0 8 0;
#X connect 8 0 9 0;
#X connect 9 0 10 0;
#X connect 10 0 17 0;
#X connect 10 1 18 0;
#X connect 11 0 29 0;
#X connect 12 0 27 0;
#X connect 13 0 28 0;
#X connect 14 0 29 0;
#X connect 15 0 27 0;
#X connect 16 0 28 0;
#X connect 17 0 60 0;
#X connect 17 0 71 0;
#X connect 17 0 72 0;
#X connect 17 0 74 0;
#X connect 17 0 95 0;
#X connect 18 0 61 0;
#X connect 18 0 73 0;
#X connect 19 0 20 0;
#X connect 19 0 70 0;
#X connect 20 0 67 0;
#X connect 21 0 67 0;
#X connect 23 0 22 0;
#X connect 23 0 13 0;
#X connect 23 0 11 0;
#X connect 23 0 12 0;
#X connect 24 0 0 0;
#X connect 24 0 97 0;
#X connect 25 0 112 0;
#X connect 27 0 3 0;
#X connect 27 1 24 0;
#X connect 28 0 3 0;
#X connect 28 1 24 0;
#X connect 29 0 3 0;
#X connect 29 1 24 0;
#X connect 30 0 105 0;
#X connect 31 0 106 0;
#X connect 33 0 78 0;
#X connect 34 0 77 0;
#X connect 35 0 113 0;
#X connect 36 0 42 0;
#X connect 37 0 42 0;
#X connect 38 0 43 0;
#X connect 39 0 43 0;
#X connect 40 0 46 0;
#X connect 41 0 46 0;
#X connect 42 0 3 0;
#X connect 42 1 24 0;
#X connect 43 0 3 0;
#X connect 43 1 24 0;
#X connect 44 0 85 0;
#X connect 45 0 84 0;
#X connect 46 0 3 0;
#X connect 46 1 24 0;
#X connect 47 0 86 0;
#X connect 48 0 50 0;
#X connect 49 0 50 0;
#X connect 50 0 3 0;
#X connect 50 1 24 0;
#X connect 51 0 87 0;
#X connect 52 0 108 0;
#X connect 53 0 109 0;
#X connect 54 0 110 0;
#X connect 55 0 102 0;
#X connect 56 0 101 0;
#X connect 57 0 103 0;
#X connect 60 0 63 0;
#X connect 61 0 62 0;
#X connect 62 0 64 0;
#X connect 63 0 64 0;
#X connect 64 0 3 0;
#X connect 64 1 24 0;
#X connect 65 0 66 0;
#X connect 66 0 64 1;
#X connect 67 0 3 0;
#X connect 67 1 24 0;
#X connect 68 0 69 0;
#X connect 69 0 67 1;
#X connect 70 0 21 0;
#X connect 71 0 15 0;
#X connect 72 0 25 0;
#X connect 72 1 30 0;
#X connect 72 2 31 0;
#X connect 72 3 75 0;
#X connect 73 0 37 0;
#X connect 73 1 39 0;
#X connect 73 2 41 0;
#X connect 73 3 49 0;
#X connect 73 4 91 0;
#X connect 73 5 92 0;
#X connect 74 0 36 0;
#X connect 74 1 38 0;
#X connect 74 2 40 0;
#X connect 74 3 48 0;
#X connect 74 4 89 0;
#X connect 74 5 90 0;
#X connect 75 0 107 0;
#X connect 76 0 79 0;
#X connect 77 0 112 1;
#X connect 78 0 105 1;
#X connect 79 0 107 1;
#X connect 80 0 3 0;
#X connect 80 1 24 0;
#X connect 81 0 88 0;
#X connect 82 0 3 0;
#X connect 82 1 24 0;
#X connect 83 0 100 0;
#X connect 84 0 42 1;
#X connect 85 0 43 1;
#X connect 86 0 46 1;
#X connect 87 0 50 1;
#X connect 88 0 80 1;
#X connect 89 0 80 0;
#X connect 90 0 82 0;
#X connect 91 0 80 0;
#X connect 92 0 82 0;
#X connect 93 0 104 0;
#X connect 94 0 111 0;
#X connect 95 0 52 0;
#X connect 95 1 53 0;
#X connect 95 2 54 0;
#X connect 95 3 94 0;
#X connect 96 0 4 0;
#X connect 97 0 4 1;
#X connect 98 0 96 1;
#X connect 98 0 97 1;
#X connect 99 0 114 0;
#X connect 100 0 82 1;
#X connect 101 0 108 1;
#X connect 102 0 109 1;
#X connect 103 0 110 1;
#X connect 104 0 111 1;
#X connect 105 0 3 0;
#X connect 105 1 24 0;
#X connect 106 0 3 0;
#X connect 106 1 24 0;
#X connect 107 0 3 0;
#X connect 107 1 24 0;
#X connect 108 0 3 0;
#X connect 108 1 24 0;
#X connect 109 0 3 0;
#X connect 109 1 24 0;
#X connect 110 0 3 0;
#X connect 110 1 24 0;
#X connect 111 0 3 0;
#X connect 111 1 24 0;
#X connect 112 0 3 0;
#X connect 112 1 24 0;
#X connect 113 0 106 1;
#X connect 114 0 98 0;
