#N canvas 0 106 776 420 10;
#X obj 126 665 outlet~;
#X obj 11 23 inlet;
#X obj 60 641 *~;
#X obj 76 54 line~;
#X obj 77 29 pack 1 5000;
#X obj 9 135 switch~;
#X obj 10 46 moses 1;
#X obj 10 91 delay 5000;
#X floatatom 10 118 5 0 0 0 - - -, f 5;
#X obj 8 69 sel 0;
#X text 255 25 fade in/out bit;
#X text 6 0 switch off the audio dsp after it's finished fading out
;
#X floatatom 640 227 5 0 0 0 - - -, f 5;
#X obj 646 172 loadbang;
#X obj 61 666 outlet~;
#X obj 111 639 *~;
#X obj 278 89 unpackOSC;
#X msg 278 48 port 8889;
#X obj 278 69 udpreceive 8889;
#X obj 187 204 unpack f;
#X obj 187 248 line;
#X obj 187 227 pack 0 1000;
#X msg 642 206 6;
#X obj 309 481 *~ 0.75;
#X obj 308 455 delread~ watertemp 1000;
#X obj 330 555 delwrite~ watertemp 1000;
#X obj 164 354 osc~;
#X obj 311 208 unpack f;
#X obj 312 252 line;
#X obj 312 231 pack 0 1000;
#X obj 416 202 unpack f;
#X obj 426 244 line, f 5;
#X obj 422 223 pack 0 1000;
#X obj 401 339 osc~;
#X obj 532 175 unpack f;
#X obj 532 220 line;
#X obj 532 199 pack 0 1000;
#X obj 163 330 +~;
#X obj 401 317 +~;
#X obj 176 111 osc~ 90;
#X obj 175 135 *~ 18;
#X text 166 92 bit of a wobble;
#X obj 279 119 route /tempnorm-0 /tempdiff-0 /tempnorm-1 /tempdiff-1
;
#X obj 162 407 *~ 1;
#X obj 403 386 *~ 1;
#X text 230 315 comment;
#X obj 314 277 * 10;
#X obj 533 250 * 10;
#X obj 310 302 clip -1 1;
#X obj 533 273 clip -1 1;
#X obj 178 296 + 70;
#X obj 183 275 * 900;
#X obj 427 292 + 70;
#X obj 428 269 * 900;
#X obj 163 377 *~ 0.025;
#X obj 402 365 *~ 0.025;
#X connect 1 0 4 0;
#X connect 1 0 6 0;
#X connect 2 0 14 0;
#X connect 3 0 2 1;
#X connect 3 0 15 1;
#X connect 4 0 3 0;
#X connect 6 0 9 0;
#X connect 6 1 5 0;
#X connect 7 0 8 0;
#X connect 8 0 5 0;
#X connect 9 0 7 0;
#X connect 13 0 22 0;
#X connect 15 0 0 0;
#X connect 16 0 42 0;
#X connect 17 0 18 0;
#X connect 18 0 16 0;
#X connect 19 0 21 0;
#X connect 20 0 51 0;
#X connect 21 0 20 0;
#X connect 22 0 12 0;
#X connect 24 0 23 0;
#X connect 26 0 54 0;
#X connect 27 0 29 0;
#X connect 28 0 46 0;
#X connect 29 0 28 0;
#X connect 30 0 32 0;
#X connect 31 0 53 0;
#X connect 32 0 31 0;
#X connect 33 0 55 0;
#X connect 34 0 36 0;
#X connect 35 0 47 0;
#X connect 36 0 35 0;
#X connect 37 0 26 0;
#X connect 38 0 33 0;
#X connect 39 0 40 0;
#X connect 40 0 38 0;
#X connect 40 0 37 0;
#X connect 42 0 19 0;
#X connect 42 1 27 0;
#X connect 42 2 30 0;
#X connect 42 3 34 0;
#X connect 43 0 2 0;
#X connect 43 0 15 0;
#X connect 44 0 15 0;
#X connect 44 0 2 0;
#X connect 46 0 48 0;
#X connect 47 0 49 0;
#X connect 48 0 43 1;
#X connect 49 0 44 1;
#X connect 50 0 37 1;
#X connect 51 0 50 0;
#X connect 52 0 38 1;
#X connect 53 0 52 0;
#X connect 54 0 43 0;
#X connect 55 0 44 0;
